<svg version="1.0" xmlns="http://www.w3.org/2000/svg"
 width="1024.000000pt" height="1024.000000pt" viewBox="0 0 1024.000000 1024.000000"
 preserveAspectRatio="xMidYMid meet">
    <defs>
        <style>
            .frame { fill:none; stroke:#143a63; stroke-width:26; stroke-linecap:round; stroke-linejoin:round; }
            .hand  { fill:#143a63; }
            .glow  { fill:#1fd4cf; }
        </style>
    </defs>

<g transform="translate(0.000000,1024.000000) scale(0.100000,-0.100000)"
fill="#000000" stroke="none" class="frame">
<path class="hand" d="M3565 8029 c-620 -79 -1108 -545 -1222 -1164 -17 -95 -18 -187 -16
-1695 2 -1556 3 -1598 23 -1714 90 -524 443 -942 935 -1105 226 -75 123 -71
1825 -71 1686 0 1609 -3 1815 65 219 72 419 198 577 364 190 199 309 431 370
718 l23 108 3 1560 c2 1080 0 1593 -8 1668 -57 560 -426 1026 -953 1202 -219
73 -102 69 -1787 71 -845 1 -1546 -2 -1585 -7z m2045 -199 c378 -10 501 -21
680 -56 624 -124 1086 -528 1283 -1124 64 -192 99 -406 112 -679 l6 -134 -31
26 c-32 27 -87 47 -130 47 l-25 0 21 -18 c31 -25 44 -55 44 -101 0 -30 4 -41
15 -41 10 0 3 -15 -22 -47 -53 -70 -94 -161 -91 -203 2 -26 -1 -36 -14 -38
-12 -2 -19 5 -24 25 -3 15 -7 32 -8 37 -1 5 -30 -29 -63 -75 -54 -74 -60 -86
-47 -100 27 -30 5 -56 -24 -27 -13 13 -36 -2 -54 -35 -8 -16 -7 -22 6 -29 12
-7 14 -13 6 -28 -9 -17 -14 -18 -30 -8 -18 12 -35 -3 -186 -152 -91 -91 -174
-177 -185 -192 l-19 -27 25 -25 c29 -29 32 -44 9 -53 -10 -4 -20 0 -26 10 -24
44 -105 -6 -92 -57 5 -20 2 -26 -9 -26 -9 0 -18 8 -21 18 -5 16 -48 -2 -324
-138 -174 -86 -351 -178 -392 -205 -136 -87 -163 -96 -287 -93 -96 3 -108 5
-111 22 -6 31 11 37 114 40 111 4 129 11 249 91 66 45 369 198 525 265 41 18
77 34 78 35 2 2 -2 20 -9 39 -11 31 -11 41 4 71 28 58 94 69 150 25 l24 -19
165 172 c152 159 165 174 152 192 -20 27 -17 78 7 109 16 21 29 26 64 26 24 0
47 -4 50 -10 12 -20 24 -9 90 80 58 80 64 93 54 112 -40 75 68 288 147 288 32
0 30 13 -6 44 -82 69 -218 30 -337 -97 -48 -52 -163 -201 -163 -213 0 -3 11
-19 25 -36 62 -73 -2 -156 -88 -117 -14 6 -31 22 -38 35 -7 13 -16 24 -20 24
-17 0 -132 -96 -216 -181 l-93 -94 21 -43 c35 -69 8 -122 -61 -122 -48 0 -80
35 -80 87 0 35 0 35 -37 28 -59 -10 -243 -72 -346 -115 l-92 -38 0 -48 c0 -40
-3 -49 -19 -52 -25 -5 -46 23 -46 64 0 33 22 60 40 49 5 -3 10 0 10 7 0 8 -15
23 -32 33 -29 18 -51 20 -173 19 -115 0 -151 -4 -200 -22 -56 -19 -65 -20
-135 -7 -120 22 -186 47 -175 66 10 15 116 80 175 107 30 13 116 47 190 74
161 59 381 152 430 180 135 80 172 201 104 336 -33 64 -94 116 -157 133 -114
31 -362 -36 -654 -175 -190 -91 -249 -106 -429 -106 -155 0 -264 -17 -406 -64
-253 -83 -363 -160 -633 -447 -55 -59 -144 -139 -198 -179 l-98 -71 226 -447
c125 -246 232 -453 239 -460 11 -12 18 -11 42 1 53 27 226 78 338 99 105 20
148 21 836 25 l724 3 51 24 c27 13 83 54 124 91 134 122 281 219 586 390 176
98 190 109 283 219 42 50 185 215 318 368 231 262 355 411 380 454 33 56 24
-1180 -11 -1505 -52 -481 -197 -823 -469 -1108 -245 -257 -553 -420 -941 -498
-238 -48 -288 -50 -1155 -50 -717 0 -831 2 -949 18 -426 55 -736 181 -1006
409 -49 42 -106 96 -126 120 -20 23 -48 57 -62 74 l-27 32 297 162 c164 90
360 197 435 239 l137 75 -204 401 c-312 613 -452 879 -464 883 -5 2 -141 -69
-300 -157 -160 -89 -292 -161 -294 -161 -3 0 -7 141 -11 313 -8 335 7 1095 24
1267 49 491 206 853 500 1150 281 285 622 440 1085 497 224 27 933 38 1475 23z
m260 -1957 c0 -5 -38 -28 -85 -53 -47 -25 -87 -50 -89 -57 -11 -28 38 -148 77
-190 28 -32 72 -30 185 8 51 17 96 28 100 25 16 -17 -21 -42 -99 -68 -101 -35
-170 -39 -208 -11 -32 25 -77 111 -92 181 -11 48 -10 55 7 80 35 47 204 117
204 85z m-550 -266 c0 -40 7 -96 15 -124 17 -57 70 -132 109 -152 32 -17 33
-27 4 -34 -80 -21 -191 173 -174 305 9 62 15 78 32 78 11 0 14 -17 14 -73z
m-502 -24 c-55 -108 -62 -131 -62 -198 -1 -78 24 -163 54 -190 18 -17 20 -16
46 14 34 40 75 42 107 4 69 -84 85 -95 132 -91 25 2 45 1 45 -3 0 -9 -53 -55
-77 -68 -12 -6 -50 -11 -85 -11 -165 0 -289 140 -289 325 0 88 6 116 39 178
23 42 29 47 59 47 19 0 33 -3 31 -7z m636 -82 c19 -60 66 -135 91 -144 23 -10
18 -27 -9 -27 -34 0 -99 75 -125 144 -26 69 -26 83 -3 89 23 5 26 1 46 -62z
m-697 -604 c92 -70 114 -130 84 -224 -25 -78 -63 -138 -99 -157 -42 -22 -121
-33 -172 -24 -35 6 -53 16 -83 49 -93 104 -104 244 -25 327 56 57 118 83 189
78 37 -2 58 -12 106 -49z m-850 -245 c51 -26 110 -94 123 -141 24 -87 -5 -190
-70 -244 -65 -55 -91 -14 -36 57 59 78 58 171 -2 232 -38 37 -82 54 -146 54
-44 0 -57 4 -66 19 -5 11 -10 24 -10 30 0 28 148 23 207 -7z"/>
<path d="M7044 5905 c-23 -13 -59 -48 -81 -77 -35 -46 -193 -319 -193 -332 0
-3 25 9 55 28 41 25 69 53 117 122 35 49 104 130 155 180 50 51 89 95 86 98
-16 16 -100 5 -139 -19z"/>
<path d="M7449 5775 c-47 -25 -120 -201 -91 -219 14 -8 151 190 152 222 0 16
-28 15 -61 -3z"/>
<path d="M6691 5726 c-78 -28 -165 -135 -236 -291 -29 -63 -50 -89 -135 -171
-55 -53 -99 -98 -98 -99 2 -2 44 8 93 21 50 12 103 23 119 23 17 1 40 11 53
23 l23 21 -30 19 c-31 18 -39 41 -19 54 6 3 24 -3 40 -15 l30 -22 54 46 c41
35 65 68 101 138 26 51 67 127 92 171 36 63 42 80 31 87 -19 12 -77 10 -118
-5z"/>
<path d="M6893 5494 c-9 -24 10 -49 41 -52 22 -3 26 1 26 20 0 43 -53 68 -67
32z"/>
<path d="M7088 5285 c-9 -21 -9 -29 3 -41 13 -13 18 -11 43 15 31 33 28 51
-10 51 -16 0 -28 -8 -36 -25z"/>
<path d="M6453 5134 c-11 -30 10 -69 37 -69 31 0 38 27 16 60 -19 29 -44 33
-53 9z"/>
<path d="M6612 4838 c-13 -13 -16 -60 -6 -71 9 -9 84 34 84 48 0 18 -22 35
-45 35 -12 0 -26 -5 -33 -12z"/>
<path d="M4881 5166 l-23 -24 31 -16 c17 -9 51 -19 75 -22 l45 -7 -42 47 c-24
25 -47 46 -53 46 -6 0 -21 -11 -33 -24z"/>
</g>
</svg>
